<?xml version="1.0" encoding="utf-8"?>
<!-- Svg Vector Icons : http://www.onlinewebfonts.com/icon -->
<!DOCTYPE svg PUBLIC "-//W3C//DTD SVG 1.1//EN" "http://www.w3.org/Graphics/SVG/1.1/DTD/svg11.dtd">
<svg version="1.1" xmlns="http://www.w3.org/2000/svg" xmlns:xlink="http://www.w3.org/1999/xlink" x="0px" y="0px" viewBox="0 0 256 256" enable-background="new 0 0 256 256" xml:space="preserve">
<metadata> Svg Vector Icons : http://www.onlinewebfonts.com/icon </metadata>
<g><g><g><path fill="#000000" d="M12.9,51.2c-2.7,1.1-2.9,2.1-2.9,13.4c0,10.2,0.1,10.5,1.2,11.9c1.1,1.2,1.8,1.5,4.5,1.7l3.3,0.2V128v49.6l-3.3,0.2c-2.7,0.2-3.5,0.5-4.5,1.7c-1.2,1.4-1.2,1.7-1.2,12.1c0,10.5,0,10.6,1.3,11.9c1.8,1.8,3.5,2,14,1.8c8.8-0.2,9.1-0.2,10.5-1.4c1.1-1,1.4-1.8,1.5-4.5l0.2-3.2H128h90.6l0.2,3.2c0.1,2.7,0.4,3.5,1.5,4.5c1.3,1.2,1.7,1.3,10.5,1.4c10.5,0.2,12.2,0,14-1.8c1.3-1.3,1.3-1.4,1.3-11.9c0-10.4-0.1-10.7-1.2-12.1c-1.1-1.2-1.8-1.5-4.5-1.7l-3.3-0.2V128V78.4l3.3-0.2c2.7-0.2,3.5-0.5,4.5-1.7c1.2-1.4,1.2-1.7,1.2-12c0-10.4,0-10.6-1.3-12.1l-1.3-1.5l-9.5-0.2c-5.2-0.1-10.3-0.1-11.2,0.2c-2.8,0.5-3.9,2.1-3.9,5.7v3.1H128H37.1v-3.1c0-2.7-0.2-3.3-1.4-4.4c-1.3-1.2-1.6-1.3-11.5-1.4C18.6,50.8,13.5,50.9,12.9,51.2z M218.9,72.3c0,1.7,0.3,3.5,0.7,4c1,1.3,3.1,2,6,2h2.3V128v49.7h-2.7c-2.9,0-5.5,1.1-6.1,2.4c-0.2,0.5-0.3,2.2-0.3,3.8v2.9H128H37.1v-3.1c-0.1-4.5-1.6-6-6.3-6h-2.7V128V78.4l3.2-0.2c4.5-0.3,5.8-1.6,5.8-5.8v-3.1H128h90.9V72.3z"/></g></g></g>
</svg>