<?xml version="1.0" encoding="iso-8859-1"?>
<!-- Generator: Adobe Illustrator 25.1.0, SVG Export Plug-In . SVG Version: 6.00 Build 0)  -->
<svg version="1.1" id="Layer_1" xmlns="http://www.w3.org/2000/svg" xmlns:xlink="http://www.w3.org/1999/xlink" x="0px" y="0px"
	 width="256.821px" height="248.143px" viewBox="0 0 256.821 248.143" enable-background="new 0 0 256.821 248.143"
	 xml:space="preserve">
<g>
	<path d="M343.346-184.604c5.992-6.089,5.991-15.996,0-22.084c-2.902-2.95-6.761-4.573-10.866-4.573c-0.975,0-1.934,0.09-2.87,0.268
		c4.079-2.835,6.722-7.602,6.722-12.903c0-8.611-6.894-15.616-15.367-15.616c-5.227,0-9.926,2.696-12.714,6.855
		c0.922-4.944-0.524-10.228-4.22-13.983c-2.901-2.95-6.761-4.574-10.865-4.574c-4.105,0-7.964,1.624-10.866,4.574
		c-3.696,3.756-5.142,9.04-4.221,13.983c-2.788-4.158-7.487-6.855-12.714-6.855c-8.473,0-15.367,7.005-15.367,15.616
		c0,5.301,2.643,10.068,6.721,12.903c-0.946-0.179-1.907-0.269-2.87-0.268c-4.105,0-7.964,1.624-10.866,4.574
		c-2.903,2.949-4.501,6.871-4.501,11.042c0,4.172,1.598,8.093,4.501,11.042c2.902,2.949,6.761,4.574,10.866,4.574
		c0.975,0,1.934-0.09,2.87-0.269c-4.079,2.835-6.721,7.603-6.721,12.904c0,8.61,6.893,15.615,15.367,15.615
		c5.227,0,9.927-2.697,12.715-6.855c-0.922,4.944,0.524,10.228,4.22,13.983c2.902,2.95,6.761,4.574,10.866,4.574
		c4.105,0,7.964-1.624,10.866-4.574c3.696-3.756,5.142-9.04,4.22-13.983c2.788,4.158,7.487,6.855,12.714,6.855
		c8.474,0,15.367-7.005,15.367-15.615c0-5.301-2.643-10.068-6.722-12.904c0.936,0.178,1.896,0.269,2.87,0.269
		C336.584-180.03,340.444-181.655,343.346-184.604"/>
	<path fill="#FFB13B" d="M338.709-201.979c-3.442-3.497-9.022-3.497-12.464,0h-18.038l12.755-12.961c4.867,0,8.813-4.01,8.813-8.956
		s-3.946-8.957-8.813-8.957c-4.868,0-8.813,4.01-8.813,8.957l-12.755,12.962v-18.331c3.442-3.498,3.442-9.168,0-12.666
		c-3.442-3.498-9.023-3.498-12.464,0s-3.442,9.169,0,12.666v18.331l-12.755-12.962c0-4.946-3.946-8.956-8.813-8.956
		s-8.813,4.01-8.813,8.956c0,4.947,3.946,8.957,8.813,8.957l12.756,12.961h-18.039c-3.442-3.498-9.023-3.497-12.465,0
		c-3.441,3.498-3.441,9.169,0,12.667c3.442,3.497,9.023,3.497,12.465,0h18.038l-12.754,12.961c-4.867,0-8.813,4.009-8.813,8.956
		c0,4.947,3.946,8.957,8.813,8.957c4.868,0,8.814-4.01,8.814-8.956l12.755-12.962v18.33c-3.442,3.498-3.442,9.169,0,12.666
		c3.442,3.498,9.023,3.498,12.465,0c3.441-3.498,3.441-9.169,0-12.667v-18.33l12.755,12.962c0,4.946,3.946,8.956,8.813,8.956
		c4.868,0,8.814-4.009,8.814-8.956c0-4.947-3.946-8.956-8.813-8.956l-12.756-12.962h18.039c3.442,3.498,9.023,3.498,12.464,0
		C342.151-192.811,342.151-198.482,338.709-201.979"/>
</g>
<g>
	<path fill="#FE9902" d="M244.308,151.618c-38.719-0.004-77.439-0.002-116.158-0.002c-38.719,0-77.439-0.003-116.158,0.003
		c-6.968,0.001-9.22,2.237-9.222,9.162c-0.01,24.786-0.01,49.571,0,74.357c0.003,7.131,2.278,9.337,9.626,9.338
		c77.273,0.005,154.545,0.005,231.818,0.001c7.525,0,9.837-2.287,9.84-9.743c0.009-24.453,0.009-48.906,0-73.359
		C254.05,153.801,251.863,151.618,244.308,151.618z M56.2,231.132c-11.804-0.068-23.446-0.107-35.249,0.036
		c-3.227,0.039-3.89-1.356-3.854-4.209c0.118-9.485,0.045-18.973,0.045-28.46c0-9.32,0.122-18.643-0.065-27.96
		c-0.068-3.385,0.833-4.68,4.447-4.663c8.982,0.041,8.983-0.135,8.982,8.905c0,13.648,0.127,27.297-0.083,40.941
		c-0.058,3.757,0.709,5.263,4.836,5.044c6.964-0.37,13.963-0.177,20.941-0.177C61.693,220.591,61.416,231.163,56.2,231.132z
		 M112.04,220.097c-7.007,10.085-18.948,14.226-31.133,10.747c-10.717-3.06-18.281-12.69-18.838-24.865
		c-0.294-6.432-0.649-12.923,0.624-19.365c2.64-13.36,14.782-22.774,28.072-21.587c14.756,1.318,25.03,11.599,25.508,25.578
		c0.091,2.651,0.013,5.308,0.013,7.963C116.557,206.063,116.592,213.544,112.04,220.097z M166.82,228.948
		c-15.452,5.776-34.895,3.219-40.37-13.9c-3.501-10.948-3.551-22.467,0.041-33.339c6.512-19.707,29.878-19.754,40.901-11.78
		c4.53,3.277,6.772,8.091,7.4,13.622c0.088,0.776,0.172,1.81-0.239,2.338c-1.376,1.769-11.52,0.162-12.362-1.86
		c-3.043-7.308-5.635-9.068-12.609-8.557c-5.326,0.39-10.003,4.464-11.123,10.489c-1.529,8.223-1.604,16.602,0.019,24.789
		c1.933,9.753,13.614,14.429,22.144,9.372c2.902-1.721,1.874-4.354,1.916-6.677c0.124-6.91,0.041-7.117-6.623-6.917
		c-3.495,0.105-4.568-0.927-4.486-4.445c0.074-3.19,0.449-4.848,4.255-4.622c5.627,0.334,11.295,0.231,16.934,0.026
		c2.89-0.105,3.603,2.407,3.603,3.698C176.22,210.043,176.122,225.471,166.82,228.948z M235.447,219.337
		c-6.531,10.242-18.243,14.781-30.777,11.802c-10.985-2.611-18.671-12.212-19.653-25.262c-0.459-6.103-0.478-12.266,0.432-18.392
		c1.982-13.342,13.711-23.039,27.346-22.478c14.356,0.591,25.239,10.598,26.321,24.218c0.249,3.139,0.448,6.282,0.634,8.911
		C239.306,205.766,239.516,212.957,235.447,219.337z M225.071,185.352c2.069,8.788,2.051,17.844-0.065,26.628
		c-1.524,6.327-6.613,9.662-12.853,9.663c-6.264,0.001-10.688-3.391-12.888-9.676c-1.588-4.536-0.931-9.207-1.135-13.831
		c0.217-4.128-0.342-8.28,0.93-12.368c2.083-6.694,6.409-10.289,12.826-10.336C218.383,175.385,223.515,178.745,225.071,185.352z
		 M103.41,198.237c0.064,4.315,0.248,8.634-0.949,12.865c-1.917,6.777-6.62,10.543-13.271,10.545
		c-6.376,0.001-11.344-3.528-12.843-10.256c-1.928-8.655-1.935-17.525,0.096-26.175c1.46-6.217,5.865-9.492,11.629-9.767
		c6.637-0.318,11.002,2.483,13.65,8.581C103.714,188.615,103.498,193.425,103.41,198.237z"/>
	<g>
		<path fill="#010100" d="M76.103,55.857c-8.818-9.083-7.832-22.777,0.173-30.667c7.986-7.872,21.461-8.694,30.469,0.004
			c0.271-7.25,3.171-13.125,9.003-17.418c4.06-2.989,8.675-4.319,13.71-4.087c11.32,0.522,20.478,9.807,20.627,21.524
			c4.584-4.309,9.952-6.496,16.217-6.214c6.255,0.282,11.438,2.864,15.524,7.59c6.777,7.84,7.294,20.564-1.081,29.251
			c1.243,0.122,2.445,0.172,3.633,0.37c8.565,1.427,15.648,8.244,17.417,16.777c0.346,1.668,0.511,3.356,0.512,5.051
			c0.013,17.321,0.015,34.642,0.005,51.963c-0.006,9.643-6.086,17.784-15.317,20.536c-1.9,0.567-3.847,0.875-5.833,0.875
			c-35.186,0.002-70.372,0.042-105.558-0.026c-10.049-0.019-18.484-6.97-20.573-16.736c-0.342-1.6-0.52-3.209-0.52-4.846
			c0.006-17.234-0.031-34.468,0.019-51.702c0.024-8.196,3.454-14.636,10.422-19.056c3.181-2.018,6.718-2.997,10.481-3.15
			C75.628,55.89,75.822,55.874,76.103,55.857z M108.383,69.027c-0.045,0.074-0.09,0.148-0.135,0.222c-0.123,0-0.246,0-0.369,0
			c-7.638,0-15.275-0.003-22.913,0.009c-0.39,0.001-0.639-0.159-0.909-0.398c-2.808-2.486-6.087-3.516-9.778-2.869
			c-5.504,0.965-9.207,5.073-9.752,10.638c-0.088,0.898-0.088,0.898,0.833,0.898c41.974,0,83.947,0,125.921,0
			c1.096,0,1.126-0.004,0.997-1.102c-0.549-4.657-2.958-8.013-7.304-9.747c-4.424-1.766-8.529-0.936-12.158,2.148
			c-0.338,0.287-0.647,0.432-1.093,0.432c-7.507-0.012-15.014-0.009-22.521-0.009c-0.209,0-0.418,0-0.65,0
			c0.053-0.33,0.284-0.444,0.442-0.602c5.104-5.112,10.227-10.206,15.306-15.343c0.684-0.692,1.379-1.021,2.343-1.115
			c6.816-0.669,11.611-7.311,10.17-13.997c-1.211-5.622-6.381-9.842-12.765-9.254c-5.521,0.509-10.094,5.325-10.399,11.112
			c-0.021,0.402-0.143,0.68-0.423,0.959c-5.33,5.317-10.651,10.643-15.978,15.964c-0.146,0.146-0.253,0.352-0.491,0.398
			c-0.141-0.154-0.072-0.336-0.072-0.498c-0.004-7.594-0.001-15.188-0.012-22.782c-0.001-0.382,0.131-0.643,0.38-0.917
			c2.098-2.311,3.143-5.049,3.058-8.155c-0.188-6.862-5.961-12.014-12.808-11.347c-4.694,0.457-8.045,2.988-9.76,7.364
			c-1.726,4.406-0.888,8.495,2.196,12.094c0.274,0.32,0.414,0.611,0.414,1.035c-0.011,7.55-0.007,15.101-0.012,22.651
			c0,0.182,0.079,0.387-0.079,0.559c-0.245-0.083-0.373-0.295-0.537-0.459c-5.096-5.09-10.175-10.197-15.296-15.26
			c-0.707-0.699-1.054-1.403-1.148-2.397c-0.641-6.807-7.404-11.638-14.081-10.112c-5.916,1.353-9.634,6.509-9.155,12.698
			c0.428,5.527,5.266,10.101,11.067,10.433c0.454,0.026,0.756,0.18,1.065,0.489c5.27,5.285,10.548,10.562,15.829,15.835
			C107.974,68.769,108.19,68.886,108.383,69.027z M158.921,114.444c0.004,0,0.008,0,0.012,0c0-4.461,0.011-8.921-0.006-13.382
			c-0.006-1.517,0.332-2.931,1.102-4.231c1.784-3.013,5.283-4.48,8.685-3.662c3.372,0.811,5.833,3.752,6.046,7.233
			c0.016,0.269-0.028,0.487,0.393,0.485c3.481-0.019,6.963-0.015,10.444-0.004c0.315,0.001,0.409-0.088,0.398-0.403
			c-0.03-0.871-0.113-1.735-0.243-2.596c-1.619-10.764-12.209-18.066-22.873-15.77c-8.911,1.919-15.188,9.704-15.186,18.838
			c0.002,8.856,0.008,17.712,0.009,26.568c0,1.089,0.031,2.176,0.19,3.254c1.491,10.076,10.601,17.178,20.817,16.231
			c9.656-0.895,17.218-9.094,17.276-18.787c0.037-6.288,0.001-12.577,0.019-18.865c0.001-0.475-0.145-0.555-0.582-0.555
			c-5.984,0.011-11.967,0.008-17.951-0.011c-0.491-0.002-0.667,0.095-0.662,0.634c0.027,3.329,0.025,6.658,0.002,9.987
			c-0.004,0.514,0.128,0.659,0.648,0.652c2.263-0.029,4.526-0.005,6.789-0.02c0.366-0.002,0.53,0.042,0.526,0.48
			c-0.023,2.567,0.025,5.136-0.017,7.702c-0.079,4.901-4.888,8.598-9.665,7.467c-3.664-0.868-6.148-3.98-6.167-7.799
			C158.904,123.409,158.921,118.926,158.921,114.444z M103.751,100.885c1.697,0,3.394-0.012,5.091,0.009
			c0.41,0.005,0.558-0.08,0.544-0.529c-0.033-1.069-0.132-2.128-0.347-3.173c-2.148-10.438-11.874-17.019-22.354-15.135
			c-10.827,1.947-17.871,13.016-14.969,23.639c1.999,7.316,6.837,11.722,14.176,13.482c2.113,0.507,4.267,0.788,6.38,1.295
			c4.66,1.118,6.546,5.551,5.692,9.288c-0.871,3.813-4.492,6.424-8.431,6.102c-3.857-0.315-6.978-3.524-7.207-7.423
			c-0.019-0.316-0.027-0.514-0.448-0.512c-3.459,0.017-6.919,0.015-10.378,0.001c-0.375-0.002-0.436,0.149-0.409,0.462
			c0.063,0.736,0.069,1.48,0.172,2.21c1.455,10.393,11.04,17.696,21.442,16.35c8.701-1.126,15.484-8.033,16.545-16.802
			c1.01-8.351-3.802-17.783-13.813-20.41c-2.28-0.598-4.609-0.855-6.916-1.257c-3.935-0.686-6.672-4.537-6.163-8.6
			c0.51-4.069,4.038-7.061,8.131-6.948c4.07,0.112,7.373,3.328,7.633,7.463c0.026,0.413,0.158,0.498,0.539,0.494
			C100.357,100.874,102.054,100.885,103.751,100.885z M128.595,119.725c-0.102-0.126-0.141-0.152-0.147-0.184
			c-2.575-12.415-5.152-24.83-7.706-37.25c-0.104-0.504-0.301-0.602-0.764-0.599c-3.308,0.018-6.615,0.026-9.923-0.006
			c-0.585-0.006-0.672,0.15-0.561,0.68c1.522,7.245,3.035,14.492,4.536,21.742c2.932,14.16,5.856,28.322,8.775,42.485
			c0.077,0.375,0.196,0.529,0.621,0.526c3.395-0.021,6.789-0.023,10.184,0.001c0.449,0.003,0.578-0.159,0.658-0.554
			c0.653-3.213,1.323-6.422,1.988-9.633c1.981-9.567,3.959-19.135,5.943-28.702c1.794-8.652,3.592-17.304,5.397-25.954
			c0.092-0.441,0.018-0.59-0.477-0.586c-3.373,0.022-6.746,0.017-10.119,0.004c-0.383-0.001-0.558,0.072-0.646,0.5
			c-1.805,8.783-3.632,17.562-5.452,26.342C130.136,112.232,129.378,115.93,128.595,119.725z"/>
		<path fill="#FE9902" d="M108.383,69.027c-0.193-0.141-0.409-0.258-0.576-0.425c-5.281-5.274-10.56-10.55-15.829-15.835
			c-0.308-0.309-0.611-0.463-1.065-0.489c-5.801-0.332-10.639-4.906-11.067-10.433c-0.479-6.189,3.238-11.345,9.155-12.698
			c6.676-1.526,13.439,3.305,14.081,10.112c0.094,0.994,0.441,1.698,1.148,2.397c5.122,5.063,10.201,10.17,15.296,15.26
			c0.164,0.164,0.293,0.376,0.537,0.459c0.158-0.172,0.079-0.377,0.079-0.559c0.005-7.55,0.001-15.101,0.012-22.651
			c0.001-0.424-0.14-0.715-0.414-1.035c-3.083-3.599-3.922-7.688-2.196-12.094c1.715-4.377,5.066-6.907,9.76-7.364
			c6.848-0.667,12.621,4.485,12.808,11.347c0.085,3.107-0.96,5.845-3.058,8.155c-0.249,0.274-0.38,0.535-0.38,0.917
			c0.011,7.594,0.007,15.188,0.012,22.782c0,0.162-0.069,0.344,0.072,0.498c0.237-0.046,0.345-0.252,0.491-0.398
			c5.326-5.321,10.647-10.647,15.978-15.964c0.28-0.28,0.402-0.557,0.423-0.959c0.305-5.786,4.878-10.603,10.399-11.112
			c6.383-0.588,11.554,3.632,12.765,9.254c1.44,6.686-3.354,13.328-10.17,13.997c-0.964,0.095-1.659,0.424-2.343,1.115
			c-5.079,5.137-10.202,10.231-15.306,15.343c-0.158,0.158-0.389,0.272-0.442,0.602c0.233,0,0.442,0,0.65,0
			c7.507,0,15.014-0.004,22.521,0.009c0.447,0.001,0.756-0.144,1.093-0.432c3.629-3.083,7.734-3.913,12.158-2.148
			c4.346,1.734,6.755,5.09,7.304,9.747c0.129,1.098,0.099,1.102-0.997,1.102c-41.974,0-83.947,0-125.921,0
			c-0.921,0-0.921,0-0.833-0.898c0.545-5.566,4.247-9.673,9.752-10.638c3.692-0.647,6.97,0.384,9.778,2.869
			c0.271,0.24,0.519,0.399,0.909,0.398c7.637-0.012,15.275-0.009,22.913-0.009c0.123,0,0.246,0,0.369,0
			C108.294,69.175,108.338,69.101,108.383,69.027z"/>
	</g>
</g>
</svg>
